PathFileType	4	(X/Y/Z)	OpenSim_Sub01_EMGBaseline_Gyro.trc
DataRate	CameraRate	NumFrames	NumMarkers	Units	OrigDataRate	OrigDataStartFrame	OrigNumFrames
100	100	33	8	m	100	1902	7604
Frame#	Time	torso_imu_offset_imu	pelvis_imu_offset_imu	tibia_r_imu_offset_imu	femur_r_imu_offset_imu	tibia_l_imu_offset_imu	femur_l_imu_offset_imu	toes_r_imu_offset_imu	toes_l_imu_offset_imu
				X1	Y1	Z1	X2	Y2	Z2	X3	Y3	Z3	X4	Y4	Z4	X5	Y5	Z5	X6	Y6	Z6	X7	Y7	Z7	X8		Y8	Z8	

1902	19.01000000	-0.12459203	-0.08866864	-0.11761072	-0.20491585	0.00052814	-0.04062991	-0.08180915	-0.20383624	-0.69138899	0.75418152	-0.09699711	-0.82452627	-0.89607060	-0.51735667	-4.14417759	0.29053335	-0.40214149	0.58956277	0.04116086	-0.08285620	-0.17980221	0.06319379	3.47766633	-1.96502909
1903	19.02000000	-0.13531743	-0.07517539	-0.12374315	-0.21491549	-0.01896955	-0.03227470	-0.08240631	-0.21216109	-0.70504398	0.62625388	-0.10767264	-0.78673305	-0.89081261	-0.52768635	-3.96638736	0.31501479	-0.33075805	0.67352947	0.02755504	-0.10892847	-0.17726144	-0.10630098	3.32699066	-2.12982098
1904	19.03000000	-0.14609488	-0.06126461	-0.12841466	-0.22850630	-0.03803887	-0.02525642	-0.08078281	-0.20270587	-0.71671511	0.46138965	-0.11771118	-0.75718027	-0.96585520	-0.51666702	-3.76089956	0.29380504	-0.22682574	0.69011074	0.00221716	-0.13769000	-0.17425628	-0.22947186	3.20488269	-2.29225366
1905	19.04000000	-0.15459513	-0.04730471	-0.13241083	-0.24001975	-0.06174581	-0.01913598	-0.10145086	-0.18385109	-0.73289727	0.28026211	-0.12903396	-0.73338277	-1.08177958	-0.48113738	-3.51910531	0.28292000	-0.13111136	0.63759751	-0.02817080	-0.17093975	-0.17214397	-0.29070168	3.05731729	-2.43914153
1906	19.05000000	-0.15873198	-0.03341734	-0.13657950	-0.24305759	-0.09539739	-0.01358362	-0.16762358	-0.16650958	-0.76074999	0.10636372	-0.14323360	-0.70970397	-1.18529660	-0.42154651	-3.23260890	0.34505976	-0.08803499	0.52102002	-0.05499539	-0.21031454	-0.17281981	-0.28105504	2.82192652	-2.55091438
1907	19.06000000	-0.15884475	-0.01813711	-0.14090804	-0.23725122	-0.13133415	-0.00842509	-0.26754144	-0.15362984	-0.80108391	-0.05366778	-0.15758761	-0.67861365	-1.24585945	-0.35158494	-2.90524981	0.46221307	-0.09650804	0.37436803	-0.07642946	-0.25544738	-0.17775125	-0.23118068	2.49523458	-2.58965911
1908	19.07000000	-0.15713965	0.00122235	-0.14472158	-0.22687373	-0.15192028	-0.00360588	-0.36253084	-0.14202925	-0.84982308	-0.20616308	-0.16605319	-0.63112812	-1.25042644	-0.29513063	-2.55027563	0.55425619	-0.12041580	0.25390876	-0.09586994	-0.30443118	-0.18807492	-0.20216385	2.11908946	-2.50336213
1909	19.08000000	-0.15542476	0.02638172	-0.14752043	-0.21630635	-0.14630547	0.00093299	-0.42384831	-0.12827286	-0.90385506	-0.34933993	-0.16452918	-0.56394793	-1.18385403	-0.26868449	-2.16715481	0.56501037	-0.13144211	0.19569290	-0.11678517	-0.35851115	-0.20290725	-0.20879514	1.72119328	-2.26605156
1910	19.09000000	-0.15418245	0.05609889	-0.14937612	-0.20989697	-0.12456443	0.00527274	-0.45431417	-0.10864454	-0.96330391	-0.45631803	-0.15493759	-0.49077490	-1.02341512	-0.26604823	-1.71369309	0.51419512	-0.12712076	0.17399657	-0.14245649	-0.42841709	-0.21538716	-0.12597766	1.28375055	-1.93021415
1911	19.10000000	-0.15361461	0.08852800	-0.15049370	-0.21182587	-0.10013779	0.00939729	-0.46240955	-0.07989913	-1.02871804	-0.49766203	-0.13996621	-0.42758048	-0.74840494	-0.27581657	-1.14588776	0.43403900	-0.11020109	0.15243383	-0.17571492	-0.52579933	-0.21790083	0.17931259	0.78377976	-1.56062967
1912	19.11000000	-0.15339364	0.12098596	-0.15149556	-0.22385788	-0.07894244	0.01177308	-0.45399955	-0.04661716	-1.09804166	-0.47513828	-0.11709874	-0.37726343	-0.38935807	-0.27146795	-0.50793345	0.33397692	-0.08996048	0.10597815	-0.21317055	-0.64984407	-0.20810813	0.57172554	0.24656624	-1.18896814
1913	19.12000000	-0.15278550	0.15014678	-0.15332491	-0.24589722	-0.06110369	0.00969910	-0.43293731	-0.01940147	-1.16721568	-0.41452780	-0.07981500	-0.33266133	-0.01625880	-0.21486256	0.08811418	0.20590755	-0.08070188	0.01835681	-0.24664721	-0.79014390	-0.18773004	0.70942717	-0.26545605	-0.82140221
1914	19.13000000	-0.15257355	0.17480111	-0.15632846	-0.27627894	-0.04690873	0.00136299	-0.40550577	-0.00653020	-1.23399540	-0.33641719	-0.02449443	-0.28935317	0.29248346	-0.09191965	0.57273307	0.05502978	-0.09722366	-0.11401838	-0.27126856	-0.93778964	-0.16046391	0.39257085	-0.69858197	-0.45102888
1915	19.14000000	-0.15808110	0.20007827	-0.15905575	-0.30881746	-0.03756838	-0.01231777	-0.38536167	-0.00891359	-1.30168061	-0.24412269	0.04356163	-0.25183277	0.43644017	0.03906404	1.00797354	-0.07259652	-0.15541225	-0.25771365	-0.29232937	-1.08905726	-0.13556931	-0.14100313	-1.02788289	-0.03404068
1916	19.15000000	-0.17491866	0.23166907	-0.15991639	-0.33755350	-0.03438870	-0.02979561	-0.38666380	-0.02572130	-1.37429218	-0.13912939	0.11711513	-0.22569730	0.32432503	0.10847334	1.46735686	-0.12682753	-0.26997820	-0.37259559	-0.31643297	-1.24136105	-0.12287125	-0.58766418	-1.23866912	0.47110506
1917	19.16000000	-0.20043573	0.26613089	-0.16019703	-0.37241898	-0.03754594	-0.04764710	-0.41068439	-0.05046208	-1.45130244	-0.04330027	0.18463103	-0.20839116	0.06256114	0.07756306	1.83205901	-0.10945006	-0.43502800	-0.42070197	-0.34162494	-1.39480306	-0.12526766	-0.87019073	-1.38984786	0.96996974
1918	19.17000000	-0.22562369	0.29299362	-0.16339798	-0.43556378	-0.04634440	-0.06100743	-0.44877679	-0.07228999	-1.52868271	0.00582743	0.23127224	-0.19108371	-0.09032696	-0.06861753	1.83531315	-0.06221996	-0.62880302	-0.36575566	-0.35936628	-1.55155436	-0.14032524	-1.08561179	-1.59693885	1.26350109
1919	19.18000000	-0.24309211	0.30619855	-0.17161366	-0.52936983	-0.05711339	-0.06852006	-0.49367425	-0.08439272	-1.60297568	-0.01277746	0.24976277	-0.16605069	0.00112568	-0.30368013	1.37240550	-0.01827627	-0.82372502	-0.18972357	-0.36514933	-1.71370520	-0.16705841	-1.28298758	-1.92048674	1.23615079
1920	19.19000000	-0.25074471	0.31333210	-0.18259179	-0.59654621	-0.05740904	-0.07936309	-0.54296847	-0.09227636	-1.67268946	-0.06990159	0.25554628	-0.12933489	0.09509618	-0.48021942	0.83145824	0.01790116	-0.97613601	0.07134560	-0.36694856	-1.88294775	-0.20919097	-1.35552395	-2.25335498	1.02849223
1921	19.20000000	-0.24767071	0.32381644	-0.19326632	-0.57424031	-0.03542472	-0.10391192	-0.59589389	-0.10331145	-1.73691111	-0.12890558	0.26776656	-0.07753104	-0.09900415	-0.44176203	0.66270592	0.04376075	-1.03955709	0.36940939	-0.37471471	-2.06146610	-0.27092096	-1.17925634	-2.46395385	0.82096810
1922	19.21000000	-0.23605232	0.33679325	-0.20041957	-0.48145977	-0.01315940	-0.14131341	-0.66282479	-0.11868785	-1.79795409	-0.18103216	0.29808067	-0.00507053	-0.55770787	-0.23093372	0.88237626	0.00631957	-0.96978393	0.62657581	-0.39343861	-2.25990684	-0.35051398	-0.80445859	-2.51867933	0.68204332
1923	19.22000000	-0.22045264	0.34349281	-0.20071824	-0.40020812	-0.03861482	-0.18207135	-0.76270649	-0.13483730	-1.86061570	-0.23898330	0.35238155	0.09527851	-1.01585574	-0.04356687	1.17267095	-0.18617570	-0.72440918	0.74200338	-0.42428535	-2.49543602	-0.44166801	-0.41550504	-2.45934521	0.59397886
1924	19.23000000	-0.20545534	0.33827239	-0.19229382	-0.38711842	-0.13271987	-0.21726099	-0.90876971	-0.14767216	-1.93000288	-0.31013581	0.43535054	0.22805389	-1.29397865	0.00051461	1.30444716	-0.55793241	-0.32216822	0.65231445	-0.45827594	-2.79199923	-0.53686165	-0.16233275	-2.31415022	0.53255754
1925	19.24000000	-0.19552307	0.32538562	-0.17763924	-0.41862216	-0.23397116	-0.24031645	-1.09660962	-0.15192531	-2.01195274	-0.38440282	0.54850933	0.38966113	-1.48570276	0.01905034	1.33752631	-0.92948672	0.03666012	0.40720643	-0.45658148	-3.19318862	-0.62529937	-0.08230109	-2.06507241	0.46090181
1926	19.25000000	-0.19483853	0.31060732	-0.16009766	-0.45712819	-0.27058299	-0.24540490	-1.31845132	-0.14295327	-2.11117807	-0.44919010	0.69143588	0.57459151	-1.72296252	0.15928108	1.37844580	-1.09885975	0.13293371	0.07988414	-0.37749616	-3.74162910	-0.69743983	-0.18482441	-1.69120631	0.34329176
1927	19.26000000	-0.20372977	0.29509621	-0.14366895	-0.47709602	-0.24495833	-0.23113639	-1.56488169	-0.12870739	-2.21354801	-0.50269688	0.84336470	0.77119048	-1.95540171	0.35267053	1.43335557	-1.09062116	-0.03251485	-0.21752027	-0.21884467	-4.41112184	-0.77156613	-0.37261388	-1.25636590	0.19635301
1928	19.27000000	-0.21955864	0.27645883	-0.13285758	-0.46227314	-0.21659563	-0.19954192	-1.82521002	-0.12682948	-2.29043468	-0.55143146	0.96787666	0.96307787	-1.99237951	0.36466562	1.43115351	-1.10366230	-0.28954680	-0.34294439	-0.00889828	-5.12247171	-0.88736573	-0.46629775	-0.88954587	0.07699074
1929	19.28000000	-0.24109725	0.25392960	-0.13088087	-0.41174468	-0.22645206	-0.15377627	-2.06686126	-0.14849379	-2.32454499	-0.60238953	1.03722014	1.14090141	-1.69685023	0.07427770	1.33377628	-1.24075382	-0.50453199	-0.20146419	0.20218140	-5.77433278	-1.06528788	-0.36054047	-0.67292266	0.02176772
1930	19.29000000	-0.27153488	0.23185151	-0.13709296	-0.36946049	-0.25602667	-0.10007198	-2.19233044	-0.18491608	-2.33337428	-0.66337993	1.05059465	1.31655296	-1.10174466	-0.28934449	1.20723747	-1.30572699	-0.66526383	0.15948871	0.30151440	-6.20359055	-1.26698091	-0.17627335	-0.54457395	0.00372197
1931	19.30000000	-0.31450210	0.21500084	-0.15019971	-0.38457486	-0.27676563	-0.04548202	-2.09851059	-0.22535899	-2.33908203	-0.74237131	1.01208820	1.50446492	-0.27835110	-0.44944707	1.13123680	-1.06311728	-0.78071635	0.66138049	0.17305393	-6.24860466	-1.44423410	-0.06772937	-0.42078370	-0.01390002
1932	19.31000000	-0.36801228	0.20050435	-0.16989380	-0.46000185	-0.27417975	-0.00082082	-1.77809604	-0.28507424	-2.33737730	-0.84747404	0.92437645	1.69831394	0.59832679	-0.38558972	1.10233861	-0.51647104	-0.84088001	1.15411201	-0.17312699	-5.94066992	-1.56398437	-0.06148420	-0.29037496	-0.03862581
1933	19.32000000	-0.42575507	0.17960248	-0.19662719	-0.56306376	-0.24460928	0.02020596	-1.29753379	-0.39929662	-2.30361192	-0.98689806	0.78905554	1.87580344	1.27348482	-0.27459838	1.05313174	0.14668890	-0.82114967	1.43256247	-0.62986778	-5.45960438	-1.60485424	-0.08585740	-0.19799791	-0.05548979
1934	19.33000000	-0.48185606	0.14639542	-0.23029845	-0.66564022	-0.18787738	0.00954363	-0.73136291	-0.57278811	-2.21838030	-1.15622983	0.61789218	2.02038673	1.54303218	-0.23953712	0.94418587	0.75349780	-0.72045430	1.38235330	-1.08712440	-4.99084858	-1.57881671	-0.08621668	-0.17163180	-0.05567371
